<svg width="66" height="66" viewBox="0 0 66 66" fill="none" xmlns="http://www.w3.org/2000/svg">
<path d="M47.5 7.87968C43.2344 5.41221 38.2821 4 33 4C16.9837 4 4 16.9837 4 33C4 37.6391 5.0893 42.0236 7.02603 45.9122C7.54073 46.9455 7.71203 48.1267 7.41365 49.2417L5.68638 55.6974C4.93656 58.4997 7.50033 61.0633 10.3027 60.3137L16.7582 58.5864C17.8734 58.288 19.0545 58.4594 20.0878 58.9738C23.9763 60.9108 28.3609 62 33 62C49.0161 62 62 49.0161 62 33C62 27.7179 60.5877 22.7655 58.1204 18.5" stroke="#BA5EE6" stroke-width="7" stroke-linecap="round"/>
<path d="M21 33H21.027M32.973 33H33M44.973 33H45" stroke="#BA5EE6" stroke-width="8" stroke-linecap="round" stroke-linejoin="round"/>
</svg>
