<svg width="69" height="65" viewBox="0 0 69 65" fill="none" xmlns="http://www.w3.org/2000/svg">
<path d="M9.2 23.2143C9.2 23.83 8.95768 24.4204 8.52635 24.8558C8.09501 25.2911 7.51 25.5357 6.9 25.5357C6.29 25.5357 5.70499 25.2911 5.27365 24.8558C4.84232 24.4204 4.6 23.83 4.6 23.2143C4.6 22.5986 4.84232 22.0081 5.27365 21.5728C5.70499 21.1374 6.29 20.8929 6.9 20.8929C7.51 20.8929 8.09501 21.1374 8.52635 21.5728C8.95768 22.0081 9.2 22.5986 9.2 23.2143ZM17.25 48.75C15.709 48.75 14.4072 49.7993 13.9702 51.2177L7.8614 52.2461C7.3048 52.3389 6.9 52.8264 6.9 53.3929V60.3571C6.9 60.9259 7.3048 61.4111 7.8614 61.5039L13.9702 62.5323C14.4072 63.9484 15.709 65 17.25 65H26.45C27.991 65 29.2928 63.9507 29.7298 62.5323L35.8386 61.5039C36.3952 61.4111 36.8 60.9236 36.8 60.3571V53.3929C36.8 52.8241 36.3952 52.3389 35.8386 52.2461L29.7298 51.2154C29.2928 49.8016 27.991 48.75 26.45 48.75H17.25ZM17.25 51.0714H26.45C27.1078 51.0714 27.6 51.5682 27.6 52.2321V61.5179C27.6 62.1818 27.1078 62.6786 26.45 62.6786H17.25C16.5922 62.6786 16.1 62.1818 16.1 61.5179V52.2321C16.1 51.5682 16.5922 51.0714 17.25 51.0714ZM13.8 53.6064V60.1436L9.2 59.3729V54.3771L13.8 53.6064ZM29.9 53.6064L34.5 54.3771V59.3729L29.9 60.1436V53.6064ZM12.65 4.64286C12.0152 4.64286 11.5 5.16286 11.5 5.80357V40.625C11.5 41.2657 12.0152 41.7857 12.65 41.7857H37.95C39.491 41.7857 39.4542 39.4643 37.95 39.4643H13.8V6.96429H55.2V17.4107C55.2 18.9429 57.5 18.9661 57.5 17.4107V5.80357C57.5 5.16286 56.9848 4.64286 56.35 4.64286H12.65ZM3.45 0C1.5594 0 0 1.57393 0 3.48214V42.9464C0 44.8546 1.5594 46.4286 3.45 46.4286H37.95C39.491 46.4286 39.468 44.1071 37.95 44.1071H3.45C2.7922 44.1071 2.3 43.6104 2.3 42.9464V3.48214C2.3 2.81821 2.7922 2.32143 3.45 2.32143H58.65C59.3078 2.32143 59.8 2.81821 59.8 3.48214V17.4107C59.8 18.9823 62.1 18.9429 62.1 17.4107V3.48214C62.1 1.57393 60.5406 0 58.65 0H3.45ZM51.75 25.5357H58.65C59.2871 25.5357 59.8 26.0534 59.8 26.6964C59.8 27.3395 59.2871 27.8571 58.65 27.8571H51.75C51.1129 27.8571 50.6 27.3395 50.6 26.6964C50.6 26.0534 51.1129 25.5357 51.75 25.5357ZM44.85 20.8929C42.9594 20.8929 41.4 22.4668 41.4 24.375V61.5179C41.4 63.4261 42.9594 65 44.85 65H65.55C67.4406 65 69 63.4261 69 61.5179V24.375C69 22.4668 67.4406 20.8929 65.55 20.8929H44.85ZM44.85 23.2143H65.55C66.2078 23.2143 66.7 23.7111 66.7 24.375V61.5179C66.7 62.1818 66.2078 62.6786 65.55 62.6786H44.85C44.1922 62.6786 43.7 62.1818 43.7 61.5179V24.375C43.7 23.7111 44.1922 23.2143 44.85 23.2143ZM55.2 55.7143C56.4742 55.7143 57.5 56.7496 57.5 58.0357C57.5 59.3218 56.4742 60.3571 55.2 60.3571C53.9258 60.3571 52.9 59.3218 52.9 58.0357C52.9 56.7496 53.9258 55.7143 55.2 55.7143Z" fill="#BA5EE6"/>
</svg>
