<svg width="62" height="70" viewBox="0 0 62 70" fill="none" xmlns="http://www.w3.org/2000/svg">
<path opacity="0.5" d="M20 9C19.8281 11.0025 19.8281 13.519 19.8281 16.7023V53.2974C19.8281 56.4809 19.8281 58.9977 20 61H16.5234C8.73422 61 4.83962 61 2.41979 58.4617C-1.96975e-07 55.9231 0 51.8376 0 43.6667V26.3333C0 18.1623 -1.96975e-07 14.0768 2.41979 11.5384C4.83962 9 8.73422 9 16.5234 9H20Z" fill="#CC60FF"/>
<path fill-rule="evenodd" clip-rule="evenodd" d="M22.4754 1.43044C20 3.6249 20 7.63906 20 15.6674V54.3326C20 62.361 20 66.3751 22.4754 68.5696C24.9507 70.7641 28.7343 70.104 36.3016 68.7842L44.4524 67.3628C52.8331 65.9009 57.0233 65.1701 59.5119 62.096C62 59.0223 62 54.5766 62 45.6852V24.3149C62 15.4235 62 10.9778 59.5119 7.9039C57.0233 4.82995 52.8331 4.09912 44.4524 2.63738L36.3016 1.21574C28.7343 -0.104107 24.9507 -0.764032 22.4754 1.43044ZM33.125 31.3373C33.125 29.82 31.9497 28.5901 30.5 28.5901C29.0503 28.5901 27.875 29.82 27.875 31.3373V38.6628C27.875 40.18 29.0503 41.4099 30.5 41.4099C31.9497 41.4099 33.125 40.18 33.125 38.6628V31.3373Z" fill="#CC60FF"/>
</svg>
