<svg width="60" height="60" viewBox="0 0 60 60" fill="none" xmlns="http://www.w3.org/2000/svg">
<g clip-path="url(#clip0_7_40)">
<path fill-rule="evenodd" clip-rule="evenodd" d="M49.6876 54H10.3145C8.19535 54 6.63046 51.9089 7.42974 49.9859C11.1383 41.0939 19.8508 36 29.9995 36C40.1514 36 48.8639 41.0939 52.5724 49.9859C53.3717 51.9089 51.8068 54 49.6876 54ZM17.75 18C17.75 11.382 23.247 5.99995 29.9995 5.99995C36.7552 5.99995 42.2491 11.382 42.2491 18C42.2491 24.618 36.7552 30 29.9995 30C23.247 30 17.75 24.618 17.75 18ZM59.867 52.9079C57.6407 42.8309 50.6768 35.3939 41.5111 32.0189C46.368 28.1879 49.2007 21.9928 48.1595 15.2098C46.9529 7.34079 40.2708 1.04393 32.2045 0.125931C21.0696 -1.14307 11.6252 7.34695 11.6252 18C11.6252 23.67 14.3079 28.7219 18.4911 32.0189C9.3223 35.3939 2.36149 42.8309 0.132072 52.9079C-0.676399 56.5709 2.337 60 6.16192 60H53.8372C57.6652 60 60.6786 56.5709 59.867 52.9079Z" fill="#CC60FF"/>
</g>
<defs>
<clipPath id="clip0_7_40">
<rect width="60" height="60" fill="white"/>
</clipPath>
</defs>
</svg>
