<svg width="63" height="63" viewBox="0 0 63 63" fill="none" xmlns="http://www.w3.org/2000/svg">
<path d="M38.5722 5.28642C36.497 -1.76214 26.503 -1.76214 24.4278 5.28642L24.0577 6.54256C23.9127 7.0346 23.6595 7.48796 23.3166 7.86942C22.9737 8.25089 22.5498 8.55078 22.076 8.74712C21.6021 8.94346 21.0903 9.03127 20.5781 9.00412C20.0659 8.97697 19.5662 8.83554 19.1158 8.59019L17.966 7.96015C11.5081 4.44768 4.44768 11.512 7.96409 17.966L8.59019 19.1158C8.83554 19.5662 8.97697 20.0659 9.00412 20.5781C9.03127 21.0903 8.94346 21.6021 8.74712 22.076C8.55078 22.5498 8.25089 22.9737 7.86942 23.3166C7.48796 23.6595 7.0346 23.9127 6.54256 24.0577L5.28642 24.4278C-1.76214 26.503 -1.76214 36.497 5.28642 38.5722L6.54256 38.9423C7.0346 39.0873 7.48796 39.3405 7.86942 39.6834C8.25089 40.0263 8.55078 40.4502 8.74712 40.924C8.94346 41.3979 9.03127 41.9097 9.00412 42.4219C8.97697 42.9341 8.83554 43.4338 8.59019 43.8842L7.96015 45.034C4.44768 51.4919 11.5081 58.5563 17.966 55.0359L19.1158 54.4098C19.5662 54.1645 20.0659 54.023 20.5781 53.9959C21.0903 53.9687 21.6021 54.0565 22.076 54.2529C22.5498 54.4492 22.9737 54.7491 23.3166 55.1306C23.6595 55.512 23.9127 55.9654 24.0577 56.4574L24.4278 57.7136C26.503 64.7621 36.497 64.7621 38.5722 57.7136L38.9423 56.4574C39.0873 55.9654 39.3405 55.512 39.6834 55.1306C40.0263 54.7491 40.4502 54.4492 40.924 54.2529C41.3979 54.0565 41.9097 53.9687 42.4219 53.9959C42.9341 54.023 43.4338 54.1645 43.8842 54.4098L45.034 55.0398C51.4919 58.5563 58.5563 51.488 55.0359 45.034L54.4098 43.8842C54.1645 43.4338 54.023 42.9341 53.9959 42.4219C53.9687 41.9097 54.0565 41.3979 54.2529 40.924C54.4492 40.4502 54.7491 40.0263 55.1306 39.6834C55.512 39.3405 55.9654 39.0873 56.4574 38.9423L57.7136 38.5722C64.7621 36.497 64.7621 26.503 57.7136 24.4278L56.4574 24.0577C55.9654 23.9127 55.512 23.6595 55.1306 23.3166C54.7491 22.9737 54.4492 22.5498 54.2529 22.076C54.0565 21.6021 53.9687 21.0903 53.9959 20.5781C54.023 20.0659 54.1645 19.5662 54.4098 19.1158L55.0398 17.966C58.5563 11.5081 51.488 4.44768 45.034 7.96409L43.8842 8.59019C43.4338 8.83554 42.9341 8.97697 42.4219 9.00412C41.9097 9.03127 41.3979 8.94346 40.924 8.74712C40.4502 8.55078 40.0263 8.25089 39.6834 7.86942C39.3405 7.48796 39.0873 7.0346 38.9423 6.54256L38.5722 5.28642ZM28.2041 6.40081C29.1728 3.11279 33.8272 3.11279 34.7959 6.40081L35.166 7.65695C35.4772 8.7126 36.0207 9.68523 36.7566 10.5035C37.4925 11.3219 38.4023 11.9651 39.4191 12.3861C40.436 12.8071 41.5341 12.9952 42.6331 12.9366C43.7321 12.8781 44.8041 12.5743 45.7704 12.0475L46.9163 11.4175C49.9247 9.78333 53.2167 13.0713 51.5786 16.0837L50.9525 17.2335C50.4265 18.2 50.1235 19.2718 50.0655 20.3706C50.0076 21.4693 50.1962 22.5671 50.6176 23.5835C51.0389 24.5999 51.6823 25.5091 52.5007 26.2446C53.319 26.9801 54.2915 27.5231 55.347 27.834L56.5992 28.2041C59.8872 29.1728 59.8872 33.8272 56.5992 34.7959L55.3431 35.166C54.2874 35.4772 53.3148 36.0207 52.4965 36.7566C51.6782 37.4925 51.0349 38.4023 50.6139 39.4191C50.1929 40.436 50.0048 41.5341 50.0634 42.6331C50.122 43.7321 50.4257 44.8041 50.9525 45.7704L51.5825 46.9163C53.2167 49.9247 49.9287 53.2167 46.9163 51.5786L45.7704 50.9525C44.8038 50.4258 43.7316 50.1222 42.6324 50.0638C41.5332 50.0055 40.4348 50.1939 39.4179 50.6153C38.4011 51.0368 37.4914 51.6804 36.7556 52.4992C36.0199 53.3179 35.4768 54.291 35.166 55.347L34.7959 56.5992C33.8272 59.8872 29.1728 59.8872 28.2041 56.5992L27.834 55.3431C27.5227 54.288 26.9793 53.3159 26.2436 52.498C25.508 51.6801 24.5987 51.0371 23.5823 50.6161C22.566 50.1952 21.4684 50.0069 20.3698 50.0651C19.2713 50.1233 18.1997 50.4265 17.2335 50.9525L16.0837 51.5825C13.0753 53.2167 9.78333 49.9287 11.4214 46.9163L12.0475 45.7704C12.575 44.8039 12.8794 43.7316 12.9384 42.6321C12.9973 41.5327 12.8094 40.434 12.3883 39.4166C11.9673 38.3993 11.3238 37.4891 10.505 36.7529C9.68631 36.0167 8.71315 35.4731 7.65695 35.1621L6.40081 34.792C3.11279 33.8233 3.11279 29.1689 6.40081 28.2002L7.65695 27.83C8.7115 27.5186 9.68307 26.9753 10.5006 26.2399C11.318 25.5045 11.9608 24.5957 12.3817 23.5798C12.8026 22.564 12.991 21.4669 12.9332 20.3689C12.8754 19.2708 12.5728 18.1996 12.0475 17.2335L11.4175 16.0837C9.78333 13.0753 13.0713 9.78333 16.0837 11.4214L17.2335 12.0475C18.1997 12.5735 19.2713 12.8767 20.3698 12.9349C21.4684 12.9931 22.566 12.8048 23.5823 12.3839C24.5987 11.9629 25.508 11.3199 26.2436 10.5021C26.9793 9.68415 27.5227 8.71205 27.834 7.65695L28.2041 6.40081Z" fill="#CC60FF"/>
<path d="M32.5 20C30.8585 20 29.233 20.3233 27.7165 20.9515C26.1999 21.5797 24.8219 22.5004 23.6612 23.6612C22.5004 24.8219 21.5797 26.1999 20.9515 27.7165C20.3233 29.233 20 30.8585 20 32.5C20 34.1415 20.3233 35.767 20.9515 37.2835C21.5797 38.8001 22.5004 40.1781 23.6612 41.3388C24.8219 42.4996 26.1999 43.4203 27.7165 44.0485C29.233 44.6767 30.8585 45 32.5 45C35.8152 45 38.9946 43.683 41.3388 41.3388C43.683 38.9946 45 35.8152 45 32.5C45 29.1848 43.683 26.0054 41.3388 23.6612C38.9946 21.317 35.8152 20 32.5 20ZM23.8509 32.5C23.8509 30.2061 24.7621 28.0062 26.3842 26.3842C28.0062 24.7621 30.2061 23.8509 32.5 23.8509C34.7939 23.8509 36.9938 24.7621 38.6158 26.3842C40.2379 28.0062 41.1491 30.2061 41.1491 32.5C41.1491 34.7939 40.2379 36.9938 38.6158 38.6158C36.9938 40.2379 34.7939 41.1491 32.5 41.1491C30.2061 41.1491 28.0062 40.2379 26.3842 38.6158C24.7621 36.9938 23.8509 34.7939 23.8509 32.5Z" fill="#CC60FF"/>
</svg>
