<svg width="88" height="66" viewBox="0 0 88 66" fill="none" xmlns="http://www.w3.org/2000/svg">
<path d="M82.5 66C82.5 66 88 66 88 60.5C88 55 82.5 38.5 60.5 38.5C38.5 38.5 33 55 33 60.5C33 66 38.5 66 38.5 66H82.5ZM38.621 60.5L38.5 60.478C38.5055 59.026 39.4185 54.813 42.68 51.018C45.716 47.4595 51.051 44 60.5 44C69.9435 44 75.2785 47.465 78.32 51.018C81.5815 54.813 82.489 59.0315 82.5 60.478L82.456 60.489L82.379 60.5H38.621ZM60.5 27.5C63.4174 27.5 66.2153 26.3411 68.2782 24.2782C70.3411 22.2153 71.5 19.4174 71.5 16.5C71.5 13.5826 70.3411 10.7847 68.2782 8.72182C66.2153 6.65892 63.4174 5.5 60.5 5.5C57.5826 5.5 54.7847 6.65892 52.7218 8.72182C50.6589 10.7847 49.5 13.5826 49.5 16.5C49.5 19.4174 50.6589 22.2153 52.7218 24.2782C54.7847 26.3411 57.5826 27.5 60.5 27.5ZM77 16.5C77 18.6668 76.5732 20.8124 75.744 22.8143C74.9148 24.8162 73.6994 26.6351 72.1673 28.1673C70.6351 29.6994 68.8161 30.9148 66.8143 31.744C64.8124 32.5732 62.6668 33 60.5 33C58.3332 33 56.1876 32.5732 54.1857 31.744C52.1839 30.9148 50.3649 29.6994 48.8327 28.1673C47.3006 26.6351 46.0852 24.8162 45.256 22.8143C44.4268 20.8124 44 18.6668 44 16.5C44 12.1239 45.7384 7.92709 48.8327 4.83274C51.9271 1.73839 56.1239 0 60.5 0C64.8761 0 69.0729 1.73839 72.1673 4.83274C75.2616 7.92709 77 12.1239 77 16.5ZM38.148 40.04C35.9467 39.352 33.6793 38.8967 31.383 38.6815C30.0925 38.5557 28.7966 38.4951 27.5 38.5C5.5 38.5 0 55 0 60.5C0 64.1667 1.83333 66 5.5 66H28.688C27.873 64.2829 27.4664 62.4004 27.5 60.5C27.5 54.945 29.5735 49.269 33.495 44.528C34.8315 42.911 36.388 41.3985 38.148 40.04ZM27.06 44C23.8069 48.892 22.0486 54.6253 22 60.5H5.5C5.5 59.07 6.402 54.835 9.68 51.018C12.6775 47.52 17.886 44.11 27.06 44.0055V44ZM8.25 19.25C8.25 14.8739 9.98839 10.6771 13.0827 7.58274C16.1771 4.48839 20.3739 2.75 24.75 2.75C29.1261 2.75 33.3229 4.48839 36.4173 7.58274C39.5116 10.6771 41.25 14.8739 41.25 19.25C41.25 23.6261 39.5116 27.8229 36.4173 30.9173C33.3229 34.0116 29.1261 35.75 24.75 35.75C20.3739 35.75 16.1771 34.0116 13.0827 30.9173C9.98839 27.8229 8.25 23.6261 8.25 19.25ZM24.75 8.25C21.8326 8.25 19.0347 9.40893 16.9718 11.4718C14.9089 13.5347 13.75 16.3326 13.75 19.25C13.75 22.1674 14.9089 24.9653 16.9718 27.0282C19.0347 29.0911 21.8326 30.25 24.75 30.25C27.6674 30.25 30.4653 29.0911 32.5282 27.0282C34.5911 24.9653 35.75 22.1674 35.75 19.25C35.75 16.3326 34.5911 13.5347 32.5282 11.4718C30.4653 9.40893 27.6674 8.25 24.75 8.25Z" fill="#CC60FF"/>
</svg>
