<svg width="24" height="26" viewBox="0 0 24 26" fill="none" xmlns="http://www.w3.org/2000/svg">
<path d="M3.27295 0.000332465C2.99382 0.000332465 2.71439 0.11552 2.50166 0.346559L0.319901 2.71014C-0.106634 3.17221 -0.106634 3.92036 0.319901 4.38126L8.27567 13L0.319901 21.6187C-0.106634 22.0808 -0.106634 22.829 0.319901 23.2899L2.50166 25.6534C2.9282 26.1155 3.61879 26.1155 4.04424 25.6534L12 17.0347L19.9558 25.6534C20.3812 26.1155 21.0729 26.1155 21.4983 25.6534L23.6801 23.2899C24.1066 22.8278 24.1066 22.0796 23.6801 21.6187L15.7243 13L23.6801 4.38126C24.1066 3.92036 24.1066 3.17103 23.6801 2.71014L21.4983 0.346559C21.0718 -0.11552 20.3812 -0.11552 19.9558 0.346559L12 8.9653L4.04424 0.346559C3.83097 0.11552 3.55208 0.000332465 3.27295 0.000332465Z" fill="black"/>
</svg>
