<svg width="53" height="53" viewBox="0 0 53 53" fill="none" xmlns="http://www.w3.org/2000/svg">
<path d="M52.5067 0.489967C52.7403 0.723967 52.9001 1.02145 52.966 1.34547C53.032 1.66948 53.0014 2.00575 52.8779 2.3125L33.241 51.4094C33.0679 51.8418 32.7789 52.218 32.4058 52.4967C32.0328 52.7754 31.59 52.9458 31.1264 52.9891C30.6627 53.0323 30.1961 52.9468 29.7779 52.7419C29.3597 52.5371 29.0061 52.2208 28.7561 51.8279L18.0315 34.9695L1.17523 24.2436C0.781469 23.9938 0.464368 23.64 0.258914 23.2214C0.0534612 22.8027 -0.0323568 22.3354 0.0109301 21.8711C0.054217 21.4068 0.224926 20.9634 0.50422 20.5899C0.783514 20.2165 1.16054 19.9275 1.59368 19.7548L50.6844 0.122086C50.9911 -0.00139908 51.3274 -0.0320436 51.6513 0.0339595C51.9753 0.0999626 52.2728 0.259705 52.5067 0.493342V0.489967ZM21.3994 33.984L30.7167 48.625L46.6889 8.69134L21.3994 33.984ZM44.303 6.30518L4.37438 22.2793L19.0169 31.5944L44.303 6.30518Z" fill="#CC60FF"/>
</svg>
