<svg width="56" height="56" viewBox="0 0 56 56" fill="none" xmlns="http://www.w3.org/2000/svg">
<path d="M28 3.5C21.5022 3.5 15.2705 6.08124 10.6759 10.6759C6.08124 15.2705 3.5 21.5022 3.5 28C3.5 34.4978 6.08124 40.7295 10.6759 45.3241C15.2705 49.9188 21.5022 52.5 28 52.5C34.4978 52.5 40.7295 49.9188 45.3241 45.3241C49.9188 40.7295 52.5 34.4978 52.5 28C52.5 21.5022 49.9188 15.2705 45.3241 10.6759C40.7295 6.08124 34.4978 3.5 28 3.5ZM28 0C35.4261 0 42.548 2.94999 47.799 8.20101C53.05 13.452 56 20.5739 56 28C56 35.4261 53.05 42.548 47.799 47.799C42.548 53.05 35.4261 56 28 56C20.5739 56 13.452 53.05 8.20101 47.799C2.94999 42.548 0 35.4261 0 28C0 20.5739 2.94999 13.452 8.20101 8.20101C13.452 2.94999 20.5739 0 28 0Z" fill="#CC60FF"/>
<path d="M15.8198 22.5588C16.1964 22.7975 16.6439 22.8622 17.064 22.7386C17.484 22.6151 17.8422 22.3134 18.0596 21.9C19.0673 19.9841 20.5167 18.3932 22.2621 17.2873C24.0075 16.1814 25.9874 15.5994 28.0027 15.6C32.2495 15.6 35.9585 18.1308 37.9458 21.9C38.1648 22.3101 38.5226 22.6084 38.9412 22.7299C39.3598 22.8514 39.8052 22.7862 40.1802 22.5485C40.5551 22.3108 40.8293 21.92 40.9427 21.4613C41.0562 21.0026 40.9997 20.5132 40.7857 20.1C39.4903 17.6368 37.6269 15.5915 35.3829 14.1696C33.139 12.7477 30.5936 11.9994 28.0027 12C25.4118 11.9994 22.8664 12.7477 20.6224 14.1696C18.3785 15.5915 16.5151 17.6368 15.2197 20.1C15.0022 20.5134 14.9433 21.0047 15.0559 21.4658C15.1684 21.9269 15.4432 22.3201 15.8198 22.5588ZM24.7233 33.6C24.7233 30.6192 23.2542 28.2 21.4439 28.2C19.6337 28.2 18.1646 30.6192 18.1646 33.6C18.1646 36.5808 19.6337 39 21.4439 39C23.2542 39 24.7233 36.5808 24.7233 33.6ZM37.8408 33.6C37.8408 30.6192 36.3717 28.2 34.5615 28.2C32.7512 28.2 31.2821 30.6192 31.2821 33.6C31.2821 36.5808 32.7512 39 34.5615 39C36.3717 39 37.8408 36.5808 37.8408 33.6Z" fill="#CC60FF"/>
</svg>
