<svg width="76" height="75" viewBox="0 0 76 75" fill="none" xmlns="http://www.w3.org/2000/svg">
<path d="M72.8722 14.9862L53.5005 33.7613H42.4535V23.0545L61.8252 4.2794C62.5627 3.57876 63.5542 3.18632 64.5869 3.18632C65.6196 3.18632 66.6112 3.57876 67.3487 4.2794L72.8722 9.6328C73.5951 10.3476 74 11.3086 74 12.3095C74 13.3104 73.5951 14.2714 72.8722 14.9862Z" fill="#CC60FF"/>
<path d="M72.8722 14.9862L53.5005 33.7613H42.4535V23.0545L61.8252 4.2794C62.5627 3.57876 63.5542 3.18632 64.5869 3.18632C65.6196 3.18632 66.6112 3.57876 67.3487 4.2794L72.8722 9.6328C73.5951 10.3476 74 11.3086 74 12.3095C74 13.3104 73.5951 14.2714 72.8722 14.9862Z" stroke="#BA5EE6" stroke-width="4" stroke-linecap="round" stroke-linejoin="round"/>
<path d="M57.801 49.0568C60.4318 51.5462 62.5233 54.5196 63.9528 57.8028C65.3823 61.0859 66.121 64.6126 66.1256 68.1761C66.1256 69.1903 65.71 70.1629 64.9701 70.88C64.2302 71.5971 63.2267 72 62.1803 72H6.94535C5.89898 72 4.89546 71.5971 4.15557 70.88C3.41567 70.1629 3 69.1903 3 68.1761C3.00378 63.8179 4.10551 59.5264 6.20947 55.6747C8.31344 51.8229 11.356 48.5273 15.0728 46.0742C15.5403 45.7968 15.9431 45.428 16.2554 44.9913C16.5676 44.5547 16.7826 44.0597 16.8866 43.538C16.9905 43.0163 16.9811 42.4794 16.859 41.9614C16.7369 41.4435 16.5048 40.9558 16.1775 40.5296C12.7482 36.4614 10.8799 31.367 10.8907 26.1137C10.8657 22.8508 11.5591 19.6202 12.9245 16.6377C14.29 13.6551 16.2962 10.9891 18.8092 8.81771C21.3222 6.6463 24.2842 5.01939 27.4974 4.04557C30.7107 3.07176 34.1013 2.77344 37.4429 3.17052C38.3132 3.22711 39.1737 3.38109 40.0074 3.62939" stroke="#BA5EE6" stroke-width="5" stroke-linecap="round" stroke-linejoin="round"/>
</svg>
