<svg width="120" height="120" viewBox="0 0 120 120" fill="none" xmlns="http://www.w3.org/2000/svg">
<path d="M45.0001 93.75C45.0001 92.7554 45.3952 91.8016 46.0985 91.0984C46.8017 90.3951 47.7555 90 48.7501 90H71.2501C72.2447 90 73.1985 90.3951 73.9018 91.0984C74.605 91.8016 75.0001 92.7554 75.0001 93.75C75.0001 94.7446 74.605 95.6984 73.9018 96.4017C73.1985 97.1049 72.2447 97.5 71.2501 97.5H48.7501C47.7555 97.5 46.8017 97.1049 46.0985 96.4017C45.3952 95.6984 45.0001 94.7446 45.0001 93.75ZM22.5001 60.465C22.5001 50.7 31.7626 43.2375 41.4751 44.145C53.7984 45.2943 66.2018 45.2943 78.5251 44.145C88.2376 43.2375 97.5001 50.7 97.5001 60.465V69.1425C97.5353 70.8031 96.9768 72.4217 95.925 73.7072C94.8733 74.9927 93.3973 75.8607 91.7626 76.155C85.4251 77.2575 74.2126 78.75 60.0001 78.75C45.7876 78.75 34.5751 77.25 28.2376 76.155C26.6029 75.8607 25.127 74.9927 24.0752 73.7072C23.0234 72.4217 22.4649 70.8031 22.5001 69.1425V60.465ZM56.5651 54.2625C56.2728 54.2128 55.9729 54.2331 55.69 54.3217C55.4071 54.4104 55.1492 54.5649 54.9376 54.7725L48.0376 61.5225C43.3446 61.2411 38.6637 60.7833 34.0051 60.15C33.5224 60.102 33.0398 60.243 32.6589 60.5434C32.2779 60.8437 32.0282 61.28 31.9622 61.7606C31.8961 62.2412 32.019 62.7287 32.3048 63.1207C32.5907 63.5126 33.0173 63.7785 33.4951 63.8625C37.6201 64.4325 42.7351 64.98 48.6451 65.31C48.9054 65.3247 49.1659 65.2849 49.41 65.1932C49.6541 65.1015 49.8763 64.9599 50.0626 64.7775L55.7176 59.2575L62.0701 72.0825C62.2039 72.3516 62.4004 72.5845 62.6431 72.7617C62.8858 72.939 63.1675 73.0553 63.4645 73.1008C63.7615 73.1464 64.0651 73.1199 64.3498 73.0237C64.6344 72.9274 64.8918 72.7641 65.1001 72.5475L72.0901 65.2725C76.9115 64.9883 81.7201 64.518 86.5051 63.8625C86.9829 63.7785 87.4095 63.5126 87.6954 63.1207C87.9813 62.7287 88.1041 62.2412 88.0381 61.7606C87.972 61.28 87.7223 60.8437 87.3413 60.5434C86.9604 60.243 86.4778 60.102 85.9951 60.15C81.9601 60.705 76.9426 61.2375 71.1451 61.5675C70.6731 61.5938 70.2284 61.7974 69.9001 62.1375L64.2451 68.025L57.9301 55.275C57.7984 55.0107 57.6061 54.7812 57.3689 54.6052C57.1317 54.4293 56.8563 54.3119 56.5651 54.2625Z" fill="#BA5EE6"/>
<path d="M63.75 13.9952C65.1798 13.1697 66.2973 11.8955 66.9291 10.3701C67.5609 8.84479 67.6718 7.15361 67.2444 5.55886C66.8171 3.96411 65.8755 2.55492 64.5657 1.54985C63.2559 0.544781 61.651 0 60 0C58.349 0 56.7441 0.544781 55.4343 1.54985C54.1245 2.55492 53.1829 3.96411 52.7556 5.55886C52.3282 7.15361 52.4391 8.84479 53.0709 10.3701C53.7027 11.8955 54.8202 13.1697 56.25 13.9952V22.5002H41.25C32.2989 22.5002 23.7145 26.056 17.3851 32.3853C11.0558 38.7147 7.5 47.2991 7.5 56.2502V60.0002C5.51088 60.0002 3.60322 60.7904 2.1967 62.1969C0.790176 63.6034 0 65.5111 0 67.5002L0 82.5002C0 84.4893 0.790176 86.397 2.1967 87.8035C3.60322 89.21 5.51088 90.0002 7.5 90.0002V97.5002C7.5 101.478 9.08035 105.294 11.8934 108.107C14.7064 110.92 18.5218 112.5 22.5 112.5H97.5C101.478 112.5 105.294 110.92 108.107 108.107C110.92 105.294 112.5 101.478 112.5 97.5002V90.0002C114.489 90.0002 116.397 89.21 117.803 87.8035C119.21 86.397 120 84.4893 120 82.5002V67.5002C120 65.5111 119.21 63.6034 117.803 62.1969C116.397 60.7904 114.489 60.0002 112.5 60.0002V56.2502C112.5 47.2991 108.944 38.7147 102.615 32.3853C96.2855 26.056 87.7011 22.5002 78.75 22.5002H63.75V13.9952ZM105 56.2502V97.5002C105 99.4893 104.21 101.397 102.803 102.803C101.397 104.21 99.4891 105 97.5 105H22.5C20.5109 105 18.6032 104.21 17.1967 102.803C15.7902 101.397 15 99.4893 15 97.5002V56.2502C15 49.2883 17.7656 42.6115 22.6884 37.6886C27.6113 32.7658 34.2881 30.0002 41.25 30.0002H78.75C85.7119 30.0002 92.3887 32.7658 97.3116 37.6886C102.234 42.6115 105 49.2883 105 56.2502Z" fill="#BA5EE6"/>
</svg>
