<svg width="52" height="52" viewBox="0 0 52 52" fill="none" xmlns="http://www.w3.org/2000/svg">
<path d="M38.163 33.6154C41.3098 29.3207 42.7193 23.996 42.1093 18.7066C41.4994 13.4172 38.915 8.55321 34.8733 5.08768C30.8316 1.62214 25.6306 -0.189329 20.3109 0.0156799C14.9911 0.220689 9.94489 2.42706 6.18181 6.19337C2.41872 9.95968 0.216274 15.0082 0.0151007 20.3288C-0.186073 25.6495 1.62886 30.8499 5.0968 34.8897C8.56474 38.9295 13.4299 41.5107 18.719 42.117C24.0081 42.7232 29.3311 41.3098 33.6229 38.1594H33.6197C33.715 38.2894 33.8211 38.414 33.9381 38.5332L46.4502 51.047C47.0596 51.6569 47.8862 51.9997 48.7483 52C49.6104 52.0003 50.4373 51.6581 51.0471 51.0486C51.6569 50.4392 51.9997 49.6124 52 48.7502C52.0003 47.8879 51.6581 47.0609 51.0487 46.451L38.5367 33.9372C38.4206 33.8195 38.2956 33.7141 38.163 33.6154ZM39.0015 21.1212C39.0015 23.4688 38.5391 25.7934 37.6409 27.9623C36.7426 30.1313 35.426 32.102 33.7662 33.762C32.1064 35.422 30.1359 36.7388 27.9673 37.6372C25.7987 38.5356 23.4744 38.998 21.1271 38.998C18.7798 38.998 16.4555 38.5356 14.2869 37.6372C12.1183 36.7388 10.1479 35.422 8.48806 33.762C6.82828 32.102 5.51167 30.1313 4.6134 27.9623C3.71513 25.7934 3.2528 23.4688 3.2528 21.1212C3.2528 16.3799 5.13598 11.8329 8.48807 8.48032C11.8402 5.12776 16.3866 3.24431 21.1271 3.24431C25.8677 3.24431 30.4141 5.12776 33.7662 8.48032C37.1183 11.8329 39.0015 16.3799 39.0015 21.1212Z" fill="#CC60FF"/>
</svg>
